<svg width="23" height="24" viewBox="0 0 23 24" fill="none" xmlns="http://www.w3.org/2000/svg">
<path d="M9.96867 4.69575C10.8144 4.69575 11.5 3.98036 11.5 3.09787C11.5 2.21539 10.8144 1.5 9.96867 1.5C9.12296 1.5 8.43738 2.21539 8.43738 3.09787C8.43738 3.98036 9.12296 4.69575 9.96867 4.69575Z" fill="#666666"/>
<path d="M20.6694 16.8975L18.5157 17.4593L17.6543 13.2644C17.6016 13.0132 17.4685 12.7882 17.2769 12.6265C17.0852 12.4649 16.8465 12.3762 16.6001 12.3751H12.6153L12.325 9.7501H17.25V8.25011H12.1592L11.9735 6.57076C11.9572 6.424 11.9135 6.28201 11.8446 6.15289C11.7758 6.02378 11.6833 5.91008 11.5724 5.81827C11.4614 5.72647 11.3343 5.65836 11.1981 5.61784C11.062 5.57733 10.9195 5.56519 10.7789 5.58212L8.99384 5.79704L9.88729 13.8751H16.3098L17.4219 19.2909L21.0183 18.3527L20.6694 16.8975Z" fill="#666666"/>
<path d="M10.0625 21C8.81268 20.9998 7.60177 20.5464 6.63691 19.7175C5.67205 18.8885 5.01321 17.7355 4.7731 16.4556C4.53299 15.1758 4.72653 13.8486 5.32061 12.7012C5.91469 11.5538 6.87239 10.6575 8.02987 10.1655L7.86012 8.63037C5.17244 9.58864 3.23438 12.25 3.23438 15.375C3.23438 19.3037 6.29746 22.5 10.0625 22.5C11.2375 22.4994 12.3925 22.1825 13.4159 21.5799C14.4392 20.9774 15.2963 20.1096 15.9043 19.0604L15.4531 16.875C14.7344 19.125 12.6949 21 10.0625 21Z" fill="#666666"/>
<path d="M8.18486 15.1285V14.8696C8.1898 13.9816 8.26652 13.2737 8.415 12.746C8.56842 12.2182 8.79114 11.7919 9.08315 11.4672C9.37515 11.1424 9.72655 10.8481 10.1373 10.5842C10.4442 10.3812 10.7189 10.1706 10.9614 9.95243C11.2039 9.73422 11.3969 9.49318 11.5405 9.22931C11.684 8.96036 11.7558 8.66096 11.7558 8.33111C11.7558 7.98097 11.6741 7.67396 11.5108 7.41009C11.3474 7.14621 11.1272 6.94323 10.85 6.80114C10.5778 6.65905 10.2759 6.58801 9.94432 6.58801C9.62262 6.58801 9.31824 6.66159 9.03118 6.80875C8.74412 6.95084 8.50903 7.16397 8.32591 7.44815C8.14279 7.72724 8.0438 8.07485 8.02895 8.49096H5C5.02475 7.47605 5.26231 6.63876 5.71269 5.97907C6.16308 5.3143 6.75947 4.81954 7.50186 4.49477C8.24425 4.16492 9.06335 4 9.95917 4C10.9441 4 11.8151 4.16746 12.5724 4.50238C13.3296 4.83222 13.9235 5.31177 14.3541 5.94101C14.7847 6.57025 15 7.32889 15 8.21694C15 8.81066 14.9035 9.33841 14.7105 9.80019C14.5224 10.2569 14.2576 10.6629 13.9161 11.0181C13.5746 11.3682 13.1712 11.6854 12.706 11.9696C12.315 12.2081 11.9933 12.4567 11.7409 12.7155C11.4934 12.9743 11.3078 13.2737 11.1841 13.6137C11.0653 13.9537 11.0035 14.3723 10.9985 14.8696V15.1285H8.18486ZM9.65479 20C9.15986 20 8.7367 19.8224 8.3853 19.4672C8.03885 19.1069 7.8681 18.6755 7.87305 18.1732C7.8681 17.6759 8.03885 17.2496 8.3853 16.8944C8.7367 16.5392 9.15986 16.3616 9.65479 16.3616C10.125 16.3616 10.5382 16.5392 10.8946 16.8944C11.2509 17.2496 11.4316 17.6759 11.4365 18.1732C11.4316 18.5081 11.345 18.8151 11.1767 19.0942C11.0134 19.3682 10.7981 19.589 10.5308 19.7564C10.2635 19.9188 9.97154 20 9.65479 20Z" fill="black"/>
</svg>
