<svg width="23" height="24" viewBox="0 0 23 24" fill="none" xmlns="http://www.w3.org/2000/svg">
<path d="M9.96867 4.69575C10.8144 4.69575 11.5 3.98036 11.5 3.09787C11.5 2.21539 10.8144 1.5 9.96867 1.5C9.12296 1.5 8.43738 2.21539 8.43738 3.09787C8.43738 3.98036 9.12296 4.69575 9.96867 4.69575Z" fill="#666666"/>
<path d="M20.6694 16.8975L18.5157 17.4593L17.6543 13.2644C17.6016 13.0132 17.4685 12.7882 17.2769 12.6265C17.0852 12.4649 16.8465 12.3762 16.6001 12.3751H12.6153L12.325 9.7501H17.25V8.25011H12.1592L11.9735 6.57076C11.9572 6.424 11.9135 6.28201 11.8446 6.15289C11.7758 6.02378 11.6833 5.91008 11.5724 5.81827C11.4614 5.72647 11.3343 5.65836 11.1981 5.61784C11.062 5.57733 10.9195 5.56519 10.7789 5.58212L8.99384 5.79704L9.88729 13.8751H16.3098L17.4219 19.2909L21.0183 18.3527L20.6694 16.8975Z" fill="#666666"/>
<path d="M10.0625 21C8.81268 20.9998 7.60177 20.5464 6.63691 19.7175C5.67205 18.8885 5.01321 17.7355 4.7731 16.4556C4.53299 15.1758 4.72653 13.8486 5.32061 12.7012C5.91469 11.5538 6.87239 10.6575 8.02987 10.1655L7.86012 8.63037C5.17244 9.58864 3.23438 12.25 3.23438 15.375C3.23438 19.3037 6.29746 22.5 10.0625 22.5C11.2375 22.4994 12.3925 22.1825 13.4159 21.5799C14.4392 20.9774 15.2963 20.1096 15.9043 19.0604L15.4531 16.875C14.7344 19.125 12.6949 21 10.0625 21Z" fill="#666666"/>
</svg>
