<svg width="28" height="28" viewBox="0 0 28 28" fill="none" xmlns="http://www.w3.org/2000/svg">
<path d="M20.5027 13.884L21.1239 13.3192L15.1132 6.70748H11.3675L8.94606 8.2798C8.48229 8.57971 8.10117 8.99119 7.83761 9.47654C7.57406 9.9619 7.43649 10.5056 7.43751 11.0579V14.9845H9.18751V11.0579C9.18701 10.7974 9.25189 10.5408 9.37623 10.3118C9.50056 10.0829 9.68036 9.88873 9.89915 9.74723L11.375 8.78905V13.9207L17.1555 25.9728H18.957L14.9141 17.265V9.08994L18.9953 13.579L23.502 25.9726H24.8986L20.5027 13.884ZM11.7414 5.2972C12.0551 5.5889 12.4596 5.76366 12.887 5.7921C13.3143 5.82054 13.7385 5.70091 14.088 5.45334C14.4375 5.20577 14.6911 4.84537 14.8061 4.43277C14.9211 4.02018 14.8905 3.58057 14.7194 3.1879C14.5483 2.79524 14.2471 2.47349 13.8667 2.27678C13.4862 2.08008 13.0496 2.02042 12.6303 2.10785C12.211 2.19528 11.8346 2.42446 11.5644 2.75683C11.2943 3.0892 11.1468 3.50448 11.1469 3.9328C11.1466 4.18893 11.1992 4.44235 11.3015 4.67716C11.4038 4.91196 11.5536 5.12306 11.7414 5.2972V5.2972Z" fill="black"/>
<path d="M7.26233 25.9728H9.14713L12.2924 18.1095L11.2647 15.9668L7.26233 25.9728V25.9728Z" fill="black"/>
<path d="M5 5L25 25" stroke="#D85353" stroke-width="3" stroke-linecap="round" stroke-linejoin="round"/>
</svg>
