<svg width="28" height="28" viewBox="0 0 28 28" fill="none" xmlns="http://www.w3.org/2000/svg">
<path d="M12.1358 5.47837C13.1654 5.47837 14 4.64375 14 3.61419C14 2.58463 13.1654 1.75 12.1358 1.75C11.1062 1.75 10.2716 2.58463 10.2716 3.61419C10.2716 4.64375 11.1062 5.47837 12.1358 5.47837Z" fill="black"/>
<path d="M25.1629 19.7136L22.541 20.369L21.4922 15.4749C21.4282 15.1819 21.2661 14.9194 21.0328 14.7308C20.7995 14.5422 20.5089 14.4387 20.2089 14.4375H15.3578L15.0044 11.375H21.0001V9.62496H14.8025L14.5765 7.66573C14.5567 7.4945 14.5034 7.32884 14.4196 7.17821C14.3359 7.02758 14.2232 6.89493 14.0882 6.78782C13.9531 6.68072 13.7983 6.60126 13.6326 6.55399C13.4668 6.50672 13.2934 6.49256 13.1222 6.51231L10.9491 6.76306L12.0368 16.1875H19.8555L21.2094 22.5059L25.5875 21.4113L25.1629 19.7136Z" fill="black"/>
<path d="M12.25 24.5001C10.7285 24.4998 9.25433 23.9709 8.07972 23.0038C6.90511 22.0367 6.10304 20.6915 5.81073 19.1983C5.51842 17.7052 5.75403 16.1568 6.47726 14.8182C7.20049 13.4795 8.36639 12.4338 9.7755 11.8599L9.56884 10.0688C6.29688 11.1868 3.9375 14.2918 3.9375 17.9376C3.9375 22.5211 7.66648 26.2501 12.25 26.2501C13.6805 26.2494 15.0865 25.8796 16.3324 25.1767C17.5782 24.4737 18.6216 23.4613 19.3618 22.2372L18.8125 19.6876C17.9375 22.3126 15.4547 24.5001 12.25 24.5001Z" fill="black"/>
<path d="M5 5L25 25" stroke="#D85353" stroke-width="3" stroke-linecap="round" stroke-linejoin="round"/>
</svg>
