<?xml version="1.0" encoding="utf-8"?>
<!-- Generator: Adobe Illustrator 26.2.1, SVG Export Plug-In . SVG Version: 6.00 Build 0)  -->
<svg version="1.1" id="Layer_1" xmlns="http://www.w3.org/2000/svg" xmlns:xlink="http://www.w3.org/1999/xlink" x="0px" y="0px"
	 viewBox="0 0 201 202" style="enable-background:new 0 0 201 202;" xml:space="preserve">
<g>
	<path d="M201.44,194.56l-47.46-47.46c14-15.6,22.52-36.22,22.52-58.78c0-48.62-39.56-88.18-88.18-88.18S0.14,39.7,0.14,88.32
		S39.7,176.5,88.32,176.5c22.47,0,43-8.45,58.58-22.33l47.47,47.46c0.97,0.98,2.25,1.47,3.53,1.47c1.28,0,2.56-0.49,3.54-1.47
		C203.39,199.68,203.39,196.51,201.44,194.56z M88.32,166.5c-43.11,0-78.18-35.07-78.18-78.18c0-43.11,35.07-78.18,78.18-78.18
		s78.18,35.07,78.18,78.18C166.5,131.43,131.43,166.5,88.32,166.5z"/>
</g>
</svg>
